<svg width="128" height="128" viewBox="0 0 128 128" fill="none" xmlns="http://www.w3.org/2000/svg">
<g clip-path="url(#clip0_1_2)">
<circle cx="64" cy="64" r="61" stroke="#DA291C" stroke-width="6"/>
<path d="M106.187 64C106.188 67.894 105.033 71.7007 102.87 74.9385C100.707 78.1764 97.6319 80.7 94.0343 82.1902C90.4367 83.6804 86.478 84.0703 82.6588 83.3106C78.8396 82.5508 75.3315 80.6755 72.5781 77.9219L72.4621 77.7988L51.3859 53.998C49.4127 52.0479 46.9068 50.725 44.1835 50.1957C41.4602 49.6665 38.6412 49.9546 36.0812 51.0238C33.5213 52.093 31.3348 53.8955 29.7968 56.2045C28.2589 58.5135 27.4384 61.2257 27.4384 64C27.4384 66.7743 28.2589 69.4865 29.7968 71.7955C31.3348 74.1045 33.5213 75.907 36.0812 76.9762C38.6412 78.0454 41.4602 78.3335 44.1835 77.8043C46.9068 77.275 49.4127 75.9521 51.3859 74.002L54.3812 70.6199C54.6262 70.3429 54.9233 70.1169 55.2555 69.9547C55.5878 69.7925 55.9488 69.6973 56.3179 69.6746C56.6869 69.6519 57.0568 69.7022 57.4065 69.8224C57.7561 69.9427 58.0787 70.1307 58.3557 70.3756C58.6327 70.6205 58.8587 70.9176 59.0209 71.2499C59.1831 71.5822 59.2783 71.9431 59.301 72.3122C59.3236 72.6812 59.2734 73.0512 59.1532 73.4008C59.0329 73.7505 58.8449 74.073 58.6 74.35L55.5449 77.7988L55.4289 77.9219C52.6755 80.675 49.1675 82.5499 45.3486 83.3094C41.5296 84.0688 37.5712 83.6788 33.9739 82.1887C30.3766 80.6985 27.302 78.1751 25.1388 74.9376C22.9756 71.7 21.821 67.8937 21.821 64C21.821 60.1063 22.9756 56.3 25.1388 53.0624C27.302 49.8249 30.3766 47.3015 33.9739 45.8113C37.5712 44.3212 41.5296 43.9312 45.3486 44.6906C49.1675 45.4501 52.6755 47.325 55.4289 50.0781L55.5449 50.2012L76.6211 74.002C78.5943 75.9521 81.1002 77.275 83.8235 77.8043C86.5468 78.3335 89.3659 78.0454 91.9258 76.9762C94.4858 75.907 96.6723 74.1045 98.2102 71.7955C99.7481 69.4865 100.569 66.7743 100.569 64C100.569 61.2257 99.7481 58.5135 98.2102 56.2045C96.6723 53.8955 94.4858 52.093 91.9258 51.0238C89.3659 49.9546 86.5468 49.6665 83.8235 50.1957C81.1002 50.725 78.5943 52.0479 76.6211 53.998L73.6258 57.3801C73.1311 57.9395 72.4345 58.2796 71.6892 58.3254C70.9438 58.3712 70.2108 58.1191 69.6514 57.6244C69.0919 57.1298 68.7519 56.4332 68.7061 55.6878C68.6602 54.9425 68.9124 54.2094 69.407 53.65L72.4621 50.2012L72.5781 50.0781C75.3315 47.3245 78.8396 45.4492 82.6588 44.6894C86.478 43.9297 90.4367 44.3196 94.0343 45.8098C97.6319 47.3 100.707 49.8236 102.87 53.0615C105.033 56.2993 106.188 60.106 106.187 64Z" fill="#DA291C"/>
<path d="M36.1484 105V93.625H39.0938C39.6198 93.625 40.112 93.6901 40.5703 93.8203C41.0286 93.9453 41.4453 94.125 41.8203 94.3594C42.1484 94.5521 42.4401 94.7891 42.6953 95.0703C42.9557 95.3464 43.1823 95.6484 43.375 95.9766C43.599 96.3776 43.7708 96.8203 43.8906 97.3047C44.0156 97.7891 44.0781 98.3047 44.0781 98.8516V99.7891C44.0781 100.315 44.0208 100.812 43.9062 101.281C43.7917 101.75 43.6302 102.18 43.4219 102.57C43.224 102.919 42.9922 103.242 42.7266 103.539C42.4609 103.831 42.1693 104.076 41.8516 104.273C41.4818 104.508 41.0729 104.688 40.625 104.812C40.1823 104.938 39.7083 105 39.2031 105H36.1484ZM38.3594 95.4062V103.234H39.2031C39.474 103.234 39.7266 103.201 39.9609 103.133C40.1953 103.065 40.4089 102.966 40.6016 102.836C40.7995 102.701 40.9766 102.529 41.1328 102.32C41.2943 102.107 41.4323 101.859 41.5469 101.578C41.6406 101.333 41.7109 101.062 41.7578 100.766C41.8099 100.464 41.8359 100.138 41.8359 99.7891V98.8359C41.8359 98.5078 41.8099 98.1979 41.7578 97.9062C41.7109 97.6094 41.6406 97.3385 41.5469 97.0938C41.4323 96.8021 41.2812 96.5417 41.0938 96.3125C40.9115 96.0833 40.6979 95.8958 40.4531 95.75C40.2656 95.6406 40.0573 95.5573 39.8281 95.5C39.6042 95.4375 39.3594 95.4062 39.0938 95.4062H38.3594ZM49.9844 105.156C49.3333 105.156 48.7422 105.049 48.2109 104.836C47.6797 104.622 47.224 104.331 46.8438 103.961C46.4635 103.596 46.1693 103.167 45.9609 102.672C45.7578 102.172 45.6562 101.638 45.6562 101.07V100.758C45.6562 100.112 45.7578 99.5234 45.9609 98.9922C46.1641 98.4557 46.4479 97.9948 46.8125 97.6094C47.1771 97.224 47.6094 96.9245 48.1094 96.7109C48.6094 96.4974 49.1536 96.3906 49.7422 96.3906C50.3516 96.3906 50.8932 96.4922 51.3672 96.6953C51.8464 96.8932 52.2526 97.1745 52.5859 97.5391C52.9141 97.9036 53.1641 98.3438 53.3359 98.8594C53.5078 99.3698 53.5938 99.9349 53.5938 100.555V101.477H47.8594V101.5C47.9323 101.839 48.026 102.112 48.1406 102.32C48.2552 102.523 48.4089 102.708 48.6016 102.875C48.7995 103.047 49.026 103.18 49.2812 103.273C49.5365 103.367 49.8151 103.414 50.1172 103.414C50.5443 103.414 50.9583 103.333 51.3594 103.172C51.7604 103.01 52.0859 102.768 52.3359 102.445L53.4219 103.617C53.1458 104.008 52.7083 104.362 52.1094 104.68C51.5104 104.997 50.8021 105.156 49.9844 105.156ZM49.7266 98.1484C49.4818 98.1484 49.2578 98.1927 49.0547 98.2812C48.8516 98.3646 48.6745 98.487 48.5234 98.6484C48.3672 98.8099 48.237 99.0026 48.1328 99.2266C48.0286 99.4505 47.9505 99.7005 47.8984 99.9766H51.4609V99.8047C51.4609 99.5755 51.4193 99.3594 51.3359 99.1562C51.2526 98.9531 51.138 98.776 50.9922 98.625C50.8464 98.4792 50.6667 98.3646 50.4531 98.2812C50.2448 98.1927 50.0026 98.1484 49.7266 98.1484ZM58.1797 105L54.9531 96.5469H57.2188L59.0781 102.508L59.1953 103.102L59.3125 102.508L61.1641 96.5469H63.4297L60.2188 105H58.1797ZM72.9609 100.148C72.9609 100.638 72.9167 101.104 72.8281 101.547C72.7396 101.984 72.612 102.391 72.4453 102.766C72.2682 103.141 72.0495 103.484 71.7891 103.797C71.5286 104.109 71.2318 104.37 70.8984 104.578C70.5964 104.76 70.263 104.901 69.8984 105C69.5391 105.104 69.151 105.156 68.7344 105.156C68.2917 105.156 67.8828 105.099 67.5078 104.984C67.1328 104.87 66.7917 104.708 66.4844 104.5C66.1823 104.281 65.9115 104.018 65.6719 103.711C65.4323 103.398 65.2318 103.047 65.0703 102.656C64.9245 102.297 64.8125 101.906 64.7344 101.484C64.6615 101.062 64.625 100.617 64.625 100.148V98.4922C64.625 97.9922 64.6667 97.5182 64.75 97.0703C64.8385 96.6224 64.9661 96.2083 65.1328 95.8281C65.2943 95.4688 65.4896 95.1432 65.7188 94.8516C65.9531 94.5599 66.2214 94.3099 66.5234 94.1016C66.8203 93.8984 67.1536 93.7422 67.5234 93.6328C67.8932 93.5234 68.2943 93.4688 68.7266 93.4688C69.1641 93.4688 69.5729 93.526 69.9531 93.6406C70.3385 93.75 70.6849 93.9089 70.9922 94.1172C71.2995 94.3151 71.5677 94.5547 71.7969 94.8359C72.0312 95.1172 72.2318 95.4271 72.3984 95.7656C72.5807 96.151 72.7188 96.5729 72.8125 97.0312C72.9115 97.4896 72.9609 97.9766 72.9609 98.4922V100.148ZM70.7344 98.4766C70.7344 98.1849 70.7188 97.9089 70.6875 97.6484C70.6615 97.3828 70.6172 97.138 70.5547 96.9141C70.4766 96.6328 70.3724 96.3828 70.2422 96.1641C70.112 95.9401 69.9583 95.7578 69.7812 95.6172C69.6406 95.513 69.4818 95.4323 69.3047 95.375C69.1328 95.3177 68.9401 95.2891 68.7266 95.2891C68.5234 95.2891 68.3385 95.3151 68.1719 95.3672C68.0104 95.4193 67.8646 95.4948 67.7344 95.5938C67.5573 95.7396 67.4062 95.9219 67.2812 96.1406C67.1615 96.3594 67.0677 96.6146 67 96.9062C66.9479 97.1302 66.9089 97.375 66.8828 97.6406C66.862 97.9062 66.8516 98.1849 66.8516 98.4766V100.148C66.8516 100.424 66.862 100.69 66.8828 100.945C66.9036 101.201 66.9401 101.438 66.9922 101.656C67.0495 101.932 67.1328 102.185 67.2422 102.414C67.3568 102.638 67.4896 102.82 67.6406 102.961C67.7812 103.086 67.9401 103.182 68.1172 103.25C68.2995 103.318 68.5052 103.352 68.7344 103.352C68.9531 103.352 69.1536 103.32 69.3359 103.258C69.5182 103.195 69.6797 103.104 69.8203 102.984C69.9974 102.839 70.1458 102.656 70.2656 102.438C70.3906 102.214 70.4896 101.961 70.5625 101.68C70.6198 101.461 70.6615 101.221 70.6875 100.961C70.7188 100.701 70.7344 100.43 70.7344 100.148V98.4766ZM74.7422 108.25V96.5469H76.75L76.8281 97.375C76.9427 97.2344 77.0677 97.1094 77.2031 97C77.3385 96.8854 77.4844 96.7865 77.6406 96.7031C77.8281 96.6042 78.0339 96.5286 78.2578 96.4766C78.487 96.4193 78.7318 96.3906 78.9922 96.3906C79.5286 96.3906 80.0026 96.4948 80.4141 96.7031C80.8255 96.9062 81.1719 97.1953 81.4531 97.5703C81.7344 97.9505 81.9453 98.4062 82.0859 98.9375C82.2318 99.4635 82.3047 100.047 82.3047 100.688V100.852C82.3047 101.466 82.2318 102.036 82.0859 102.562C81.9453 103.089 81.737 103.542 81.4609 103.922C81.1797 104.307 80.8333 104.609 80.4219 104.828C80.0104 105.047 79.5391 105.156 79.0078 105.156C78.7266 105.156 78.4661 105.125 78.2266 105.062C77.9922 105.005 77.7734 104.919 77.5703 104.805C77.4505 104.732 77.3359 104.651 77.2266 104.562C77.1172 104.474 77.013 104.375 76.9141 104.266V108.25H74.7422ZM80.1328 100.688C80.1328 100.333 80.099 100.003 80.0312 99.6953C79.9688 99.3828 79.8698 99.112 79.7344 98.8828C79.5938 98.6589 79.4141 98.4818 79.1953 98.3516C78.9818 98.2214 78.7214 98.1562 78.4141 98.1562C78.237 98.1562 78.0755 98.1745 77.9297 98.2109C77.7839 98.2422 77.651 98.2891 77.5312 98.3516C77.3958 98.4245 77.276 98.5156 77.1719 98.625C77.0729 98.7344 76.987 98.862 76.9141 99.0078V102.539C76.9818 102.674 77.0625 102.797 77.1562 102.906C77.2552 103.016 77.3672 103.109 77.4922 103.188C77.612 103.26 77.75 103.318 77.9062 103.359C78.0625 103.396 78.237 103.414 78.4297 103.414C78.737 103.414 78.9974 103.346 79.2109 103.211C79.4297 103.076 79.6068 102.891 79.7422 102.656C79.8776 102.422 79.9766 102.151 80.0391 101.844C80.1016 101.531 80.1328 101.201 80.1328 100.852V100.688ZM89.7734 102.68C89.7734 102.549 89.7422 102.435 89.6797 102.336C89.6224 102.237 89.5182 102.143 89.3672 102.055C89.2109 101.971 89.0052 101.893 88.75 101.82C88.4948 101.747 88.1719 101.674 87.7812 101.602C87.2865 101.503 86.8333 101.38 86.4219 101.234C86.0156 101.083 85.6667 100.901 85.375 100.688C85.0833 100.479 84.8542 100.237 84.6875 99.9609C84.526 99.6849 84.4453 99.3672 84.4453 99.0078C84.4453 98.6589 84.5286 98.3255 84.6953 98.0078C84.862 97.6901 85.1016 97.4115 85.4141 97.1719C85.7266 96.9323 86.1068 96.7422 86.5547 96.6016C87.0026 96.4609 87.5078 96.3906 88.0703 96.3906C88.6589 96.3906 89.1875 96.4609 89.6562 96.6016C90.125 96.737 90.5234 96.9245 90.8516 97.1641C91.1745 97.4089 91.4219 97.6979 91.5938 98.0312C91.7656 98.3646 91.8516 98.7266 91.8516 99.1172H89.6797C89.6797 98.9766 89.6562 98.8464 89.6094 98.7266C89.5625 98.6016 89.4922 98.4896 89.3984 98.3906C89.2682 98.2604 89.0911 98.1562 88.8672 98.0781C88.6484 98 88.3828 97.9609 88.0703 97.9609C87.8047 97.9609 87.5729 97.987 87.375 98.0391C87.1771 98.0911 87.0156 98.1641 86.8906 98.2578C86.776 98.3411 86.6875 98.4401 86.625 98.5547C86.5677 98.6641 86.5391 98.7812 86.5391 98.9062C86.5391 99.0312 86.5651 99.1484 86.6172 99.2578C86.6693 99.362 86.763 99.4557 86.8984 99.5391C87.0286 99.6276 87.2083 99.7083 87.4375 99.7812C87.6667 99.849 87.9583 99.9089 88.3125 99.9609C88.8229 100.044 89.2969 100.151 89.7344 100.281C90.1719 100.411 90.5495 100.578 90.8672 100.781C91.1849 100.99 91.4323 101.242 91.6094 101.539C91.7917 101.831 91.8828 102.18 91.8828 102.586C91.8828 102.961 91.7917 103.307 91.6094 103.625C91.4323 103.938 91.1797 104.208 90.8516 104.438C90.5182 104.667 90.1172 104.846 89.6484 104.977C89.1797 105.102 88.6562 105.164 88.0781 105.164C87.4427 105.164 86.8802 105.081 86.3906 104.914C85.9062 104.747 85.5 104.529 85.1719 104.258C84.8438 103.992 84.5938 103.69 84.4219 103.352C84.2552 103.008 84.1719 102.664 84.1719 102.32H86.2422C86.2578 102.549 86.3203 102.747 86.4297 102.914C86.5391 103.076 86.6797 103.206 86.8516 103.305C87.0234 103.409 87.2188 103.484 87.4375 103.531C87.6615 103.578 87.8906 103.602 88.125 103.602C88.4062 103.602 88.651 103.578 88.8594 103.531C89.0729 103.479 89.2474 103.411 89.3828 103.328C89.513 103.245 89.6094 103.148 89.6719 103.039C89.7396 102.93 89.7734 102.81 89.7734 102.68Z" fill="#DA291C"/>
</g>
<rect x="3" y="3" width="122" height="122" stroke="#DA291C" stroke-width="6"/>
<defs>
<clipPath id="clip0_1_2">
<rect width="128" height="128" fill="white"/>
</clipPath>
</defs>
</svg>
